<mxfile host="app.diagrams.net" modified="2023-08-22T03:24:14.863Z" agent="Mozilla/5.0 (Windows NT 10.0; Win64; x64) AppleWebKit/537.36 (KHTML, like Gecko) Chrome/115.0.0.0 Safari/537.36" etag="Z1Iyx2UIIjPgUgyd_pBq" version="21.6.8" type="github">
  <diagram id="C5RBs43oDa-KdzZeNtuy" name="Page-1">
    <mxGraphModel dx="1867" dy="1899" grid="1" gridSize="10" guides="1" tooltips="1" connect="1" arrows="1" fold="1" page="1" pageScale="1" pageWidth="827" pageHeight="1169" background="#FFFFFF" math="0" shadow="0">
      <root>
        <mxCell id="WIyWlLk6GJQsqaUBKTNV-0" />
        <mxCell id="WIyWlLk6GJQsqaUBKTNV-1" parent="WIyWlLk6GJQsqaUBKTNV-0" />
        <mxCell id="z3ujY_tSIcdoNhCUxw0q-47" value="Si" style="rounded=0;html=1;jettySize=auto;orthogonalLoop=1;fontSize=11;endArrow=block;endFill=0;endSize=8;strokeWidth=2;shadow=0;labelBackgroundColor=none;edgeStyle=orthogonalEdgeStyle;strokeColor=#00FF00;" parent="WIyWlLk6GJQsqaUBKTNV-1" edge="1">
          <mxGeometry x="-0.3405" y="-10" relative="1" as="geometry">
            <mxPoint as="offset" />
            <mxPoint x="390.67" y="-930" as="sourcePoint" />
            <mxPoint x="391" y="-900" as="targetPoint" />
          </mxGeometry>
        </mxCell>
        <mxCell id="z3ujY_tSIcdoNhCUxw0q-48" value="No" style="edgeStyle=orthogonalEdgeStyle;rounded=0;html=1;jettySize=auto;orthogonalLoop=1;fontSize=11;endArrow=block;endFill=0;endSize=8;strokeWidth=2;shadow=0;labelBackgroundColor=none;strokeColor=#ed0c0c;entryX=0;entryY=0.5;entryDx=0;entryDy=0;exitX=1;exitY=0.5;exitDx=0;exitDy=0;" parent="WIyWlLk6GJQsqaUBKTNV-1" target="z3ujY_tSIcdoNhCUxw0q-51" edge="1" source="z3ujY_tSIcdoNhCUxw0q-57">
          <mxGeometry x="-0.1967" y="10" relative="1" as="geometry">
            <mxPoint as="offset" />
            <mxPoint x="451" y="-1050.33" as="sourcePoint" />
            <mxPoint x="491" y="-1050" as="targetPoint" />
            <Array as="points">
              <mxPoint x="573" y="-1035" />
            </Array>
          </mxGeometry>
        </mxCell>
        <mxCell id="z3ujY_tSIcdoNhCUxw0q-50" style="edgeStyle=orthogonalEdgeStyle;rounded=0;orthogonalLoop=1;jettySize=auto;html=1;exitX=1;exitY=0.5;exitDx=0;exitDy=0;endArrow=block;endFill=0;endSize=8;strokeColor=#0000FF;strokeWidth=2;" parent="WIyWlLk6GJQsqaUBKTNV-1" source="z3ujY_tSIcdoNhCUxw0q-51" edge="1">
          <mxGeometry relative="1" as="geometry">
            <mxPoint x="759" y="-680" as="targetPoint" />
            <Array as="points">
              <mxPoint x="759" y="-1035" />
            </Array>
          </mxGeometry>
        </mxCell>
        <mxCell id="z3ujY_tSIcdoNhCUxw0q-51" value="mensaje: Error" style="rounded=1;whiteSpace=wrap;html=1;fontSize=12;glass=0;strokeWidth=2;shadow=0;fillColor=#f8cecc;strokeColor=#b85450;gradientColor=#ea6b66;" parent="WIyWlLk6GJQsqaUBKTNV-1" vertex="1">
          <mxGeometry x="573" y="-1050" width="96" height="30" as="geometry" />
        </mxCell>
        <mxCell id="z3ujY_tSIcdoNhCUxw0q-53" value="" style="edgeStyle=orthogonalEdgeStyle;rounded=0;html=1;jettySize=auto;orthogonalLoop=1;fontSize=11;endArrow=block;endFill=0;endSize=8;strokeWidth=2;shadow=0;labelBackgroundColor=none;exitX=0.521;exitY=0;exitDx=0;exitDy=0;exitPerimeter=0;strokeColor=#FF0080;" parent="WIyWlLk6GJQsqaUBKTNV-1" edge="1">
          <mxGeometry x="0.3293" y="-20" relative="1" as="geometry">
            <mxPoint as="offset" />
            <mxPoint x="530.996" y="-885" as="sourcePoint" />
            <mxPoint x="411" y="-890" as="targetPoint" />
            <Array as="points">
              <mxPoint x="541" y="-885" />
              <mxPoint x="541" y="-915" />
              <mxPoint x="411" y="-915" />
            </Array>
          </mxGeometry>
        </mxCell>
        <mxCell id="z3ujY_tSIcdoNhCUxw0q-95" style="edgeStyle=orthogonalEdgeStyle;rounded=0;orthogonalLoop=1;jettySize=auto;html=1;exitX=0.5;exitY=0;exitDx=0;exitDy=0;entryX=0.5;entryY=0;entryDx=0;entryDy=0;endArrow=block;endFill=0;strokeColor=#00FF00;strokeWidth=2;endSize=8;startArrow=block;startFill=0;targetPerimeterSpacing=6;sourcePerimeterSpacing=6;jumpSize=6;startSize=8;" parent="WIyWlLk6GJQsqaUBKTNV-1" source="z3ujY_tSIcdoNhCUxw0q-70" target="z3ujY_tSIcdoNhCUxw0q-66" edge="1">
          <mxGeometry relative="1" as="geometry">
            <mxPoint x="299" y="-815" as="sourcePoint" />
          </mxGeometry>
        </mxCell>
        <mxCell id="z3ujY_tSIcdoNhCUxw0q-96" style="edgeStyle=orthogonalEdgeStyle;rounded=0;orthogonalLoop=1;jettySize=auto;html=1;exitX=0.5;exitY=1;exitDx=0;exitDy=0;endArrow=none;endFill=0;strokeColor=#00FF00;strokeWidth=2;endSize=8;" parent="WIyWlLk6GJQsqaUBKTNV-1" source="z3ujY_tSIcdoNhCUxw0q-54" edge="1">
          <mxGeometry relative="1" as="geometry">
            <mxPoint x="391" y="-810" as="targetPoint" />
          </mxGeometry>
        </mxCell>
        <mxCell id="z3ujY_tSIcdoNhCUxw0q-54" value="¿La ruta es absoluta?" style="rhombus;whiteSpace=wrap;html=1;shadow=0;fontFamily=Helvetica;fontSize=12;align=center;strokeWidth=2;spacing=6;spacingTop=-4;fillColor=#dae8fc;gradientColor=#7ea6e0;strokeColor=#6c8ebf;" parent="WIyWlLk6GJQsqaUBKTNV-1" vertex="1">
          <mxGeometry x="331" y="-900" width="120" height="60" as="geometry" />
        </mxCell>
        <object label="Inicio" id="z3ujY_tSIcdoNhCUxw0q-55">
          <mxCell style="ellipse;whiteSpace=wrap;html=1;fillColor=#d5e8d4;strokeColor=#82b366;gradientColor=#97d077;strokeWidth=2;" parent="WIyWlLk6GJQsqaUBKTNV-1" vertex="1">
            <mxGeometry x="353.5" y="-1120" width="70" height="40" as="geometry" />
          </mxCell>
        </object>
        <mxCell id="z3ujY_tSIcdoNhCUxw0q-56" value="" style="rounded=0;html=1;jettySize=auto;orthogonalLoop=1;fontSize=11;endArrow=block;endFill=0;endSize=8;strokeWidth=2;shadow=0;labelBackgroundColor=none;edgeStyle=orthogonalEdgeStyle;strokeColor=#FF0080;" parent="WIyWlLk6GJQsqaUBKTNV-1" edge="1">
          <mxGeometry relative="1" as="geometry">
            <mxPoint x="390.49999999999994" y="-1020" as="sourcePoint" />
            <mxPoint x="390.49999999999994" y="-990" as="targetPoint" />
          </mxGeometry>
        </mxCell>
        <mxCell id="z3ujY_tSIcdoNhCUxw0q-57" value="Ruta (Path)" style="shape=parallelogram;perimeter=parallelogramPerimeter;whiteSpace=wrap;html=1;fixedSize=1;fillColor=#fff2cc;gradientColor=#ffd966;strokeColor=#d6b656;strokeWidth=2;" parent="WIyWlLk6GJQsqaUBKTNV-1" vertex="1">
          <mxGeometry x="328.5" y="-1050" width="120" height="30" as="geometry" />
        </mxCell>
        <mxCell id="z3ujY_tSIcdoNhCUxw0q-58" value="¿Existe la ruta?" style="strokeWidth=2;html=1;shape=mxgraph.flowchart.decision;spacing=0;whiteSpace=wrap;fillColor=#dae8fc;gradientColor=#7ea6e0;strokeColor=#6c8ebf;" parent="WIyWlLk6GJQsqaUBKTNV-1" vertex="1">
          <mxGeometry x="328.5" y="-990" width="125" height="60" as="geometry" />
        </mxCell>
        <mxCell id="z3ujY_tSIcdoNhCUxw0q-59" value="" style="rounded=0;html=1;jettySize=auto;orthogonalLoop=1;fontSize=11;endArrow=block;endFill=0;endSize=8;strokeWidth=2;shadow=0;labelBackgroundColor=none;edgeStyle=orthogonalEdgeStyle;strokeColor=#FF0080;" parent="WIyWlLk6GJQsqaUBKTNV-1" edge="1">
          <mxGeometry relative="1" as="geometry">
            <mxPoint x="390.49999999999994" y="-1080" as="sourcePoint" />
            <mxPoint x="390.49999999999994" y="-1050" as="targetPoint" />
          </mxGeometry>
        </mxCell>
        <mxCell id="z3ujY_tSIcdoNhCUxw0q-61" value="No" style="edgeStyle=orthogonalEdgeStyle;rounded=0;html=1;jettySize=auto;orthogonalLoop=1;fontSize=11;endArrow=block;endFill=0;endSize=8;strokeWidth=2;shadow=0;labelBackgroundColor=none;strokeColor=#FF0000;entryX=0;entryY=0.5;entryDx=0;entryDy=0;" parent="WIyWlLk6GJQsqaUBKTNV-1" target="z3ujY_tSIcdoNhCUxw0q-64" edge="1">
          <mxGeometry x="-0.1967" y="10" relative="1" as="geometry">
            <mxPoint as="offset" />
            <mxPoint x="451" y="-960.51" as="sourcePoint" />
            <mxPoint x="491" y="-960.08" as="targetPoint" />
            <Array as="points" />
          </mxGeometry>
        </mxCell>
        <mxCell id="z3ujY_tSIcdoNhCUxw0q-62" value="Convertir en absoluta" style="rounded=1;whiteSpace=wrap;html=1;fontSize=12;glass=0;strokeWidth=2;shadow=0;fillColor=#f5f5f5;gradientColor=#b3b3b3;strokeColor=#666666;" parent="WIyWlLk6GJQsqaUBKTNV-1" vertex="1">
          <mxGeometry x="491" y="-885" width="96" height="30" as="geometry" />
        </mxCell>
        <mxCell id="z3ujY_tSIcdoNhCUxw0q-63" style="edgeStyle=orthogonalEdgeStyle;rounded=0;orthogonalLoop=1;jettySize=auto;html=1;exitX=1;exitY=0.5;exitDx=0;exitDy=0;endArrow=block;endFill=0;endSize=8;strokeColor=#0000FF;strokeWidth=2;" parent="WIyWlLk6GJQsqaUBKTNV-1" source="z3ujY_tSIcdoNhCUxw0q-64" edge="1">
          <mxGeometry relative="1" as="geometry">
            <mxPoint x="739" y="-680" as="targetPoint" />
            <Array as="points">
              <mxPoint x="739" y="-960" />
            </Array>
          </mxGeometry>
        </mxCell>
        <mxCell id="z3ujY_tSIcdoNhCUxw0q-64" value="mensaje: Error" style="rounded=1;whiteSpace=wrap;html=1;fontSize=12;glass=0;strokeWidth=2;shadow=0;fillColor=#f8cecc;strokeColor=#b85450;gradientColor=#ea6b66;" parent="WIyWlLk6GJQsqaUBKTNV-1" vertex="1">
          <mxGeometry x="573" y="-975" width="96" height="30" as="geometry" />
        </mxCell>
        <mxCell id="z3ujY_tSIcdoNhCUxw0q-65" value="No" style="edgeStyle=orthogonalEdgeStyle;rounded=0;html=1;jettySize=auto;orthogonalLoop=1;fontSize=11;endArrow=block;endFill=0;endSize=8;strokeWidth=2;shadow=0;labelBackgroundColor=none;strokeColor=#FF0000;" parent="WIyWlLk6GJQsqaUBKTNV-1" edge="1">
          <mxGeometry x="-0.1967" y="10" relative="1" as="geometry">
            <mxPoint as="offset" />
            <mxPoint x="451" y="-870.46" as="sourcePoint" />
            <mxPoint x="491" y="-870.03" as="targetPoint" />
            <Array as="points" />
          </mxGeometry>
        </mxCell>
        <mxCell id="z3ujY_tSIcdoNhCUxw0q-66" value="&amp;nbsp; &amp;nbsp; &amp;nbsp; &lt;br&gt;¿Es un archivo .md?" style="rhombus;whiteSpace=wrap;html=1;shadow=0;fontFamily=Helvetica;fontSize=12;align=center;strokeWidth=2;spacing=6;spacingTop=-4;fillColor=#dae8fc;gradientColor=#7ea6e0;strokeColor=#6c8ebf;" parent="WIyWlLk6GJQsqaUBKTNV-1" vertex="1">
          <mxGeometry x="413" y="-790" width="120" height="60" as="geometry" />
        </mxCell>
        <mxCell id="z3ujY_tSIcdoNhCUxw0q-70" value="&lt;div style=&quot;line-height: 120%;&quot;&gt;&lt;span style=&quot;background-color: initial;&quot;&gt;&lt;br&gt;&lt;/span&gt;&lt;/div&gt;&lt;div style=&quot;line-height: 120%;&quot;&gt;&lt;span style=&quot;background-color: initial;&quot;&gt;¿Es un directorio o carpeta?&lt;/span&gt;&lt;/div&gt;" style="rhombus;whiteSpace=wrap;html=1;shadow=0;fontFamily=Helvetica;fontSize=12;align=center;strokeWidth=2;spacing=6;spacingTop=-4;fillColor=#dae8fc;gradientColor=#7ea6e0;strokeColor=#6c8ebf;" parent="WIyWlLk6GJQsqaUBKTNV-1" vertex="1">
          <mxGeometry x="236" y="-790" width="120" height="60" as="geometry" />
        </mxCell>
        <mxCell id="z3ujY_tSIcdoNhCUxw0q-73" value="mensaje: Error" style="rounded=1;whiteSpace=wrap;html=1;fontSize=12;glass=0;strokeWidth=2;shadow=0;fillColor=#f8cecc;strokeColor=#b85450;gradientColor=#ea6b66;" parent="WIyWlLk6GJQsqaUBKTNV-1" vertex="1">
          <mxGeometry x="573" y="-820" width="96" height="30" as="geometry" />
        </mxCell>
        <object label="Fin" id="z3ujY_tSIcdoNhCUxw0q-94">
          <mxCell style="ellipse;whiteSpace=wrap;html=1;fillColor=#d5e8d4;strokeColor=#82b366;gradientColor=#97d077;strokeWidth=2;" parent="WIyWlLk6GJQsqaUBKTNV-1" vertex="1">
            <mxGeometry x="709" y="-679" width="72" height="40" as="geometry" />
          </mxCell>
        </object>
        <mxCell id="z3ujY_tSIcdoNhCUxw0q-99" value="Si" style="rounded=0;html=1;jettySize=auto;orthogonalLoop=1;fontSize=11;endArrow=block;endFill=0;endSize=8;strokeWidth=2;shadow=0;labelBackgroundColor=none;edgeStyle=orthogonalEdgeStyle;strokeColor=#00FF00;exitX=0;exitY=0.5;exitDx=0;exitDy=0;entryX=1;entryY=0.5;entryDx=0;entryDy=0;" parent="WIyWlLk6GJQsqaUBKTNV-1" source="z3ujY_tSIcdoNhCUxw0q-70" edge="1">
          <mxGeometry x="-0.3405" y="-10" relative="1" as="geometry">
            <mxPoint as="offset" />
            <mxPoint x="238.5" y="-690" as="sourcePoint" />
            <mxPoint x="199" y="-760" as="targetPoint" />
          </mxGeometry>
        </mxCell>
        <mxCell id="z3ujY_tSIcdoNhCUxw0q-100" value="mensaje: Error" style="rounded=1;whiteSpace=wrap;html=1;fontSize=12;glass=0;strokeWidth=2;shadow=0;fillColor=#f8cecc;strokeColor=#b85450;gradientColor=#ea6b66;" parent="WIyWlLk6GJQsqaUBKTNV-1" vertex="1">
          <mxGeometry x="19" y="-855" width="96" height="30" as="geometry" />
        </mxCell>
        <mxCell id="z3ujY_tSIcdoNhCUxw0q-103" value="No" style="edgeStyle=orthogonalEdgeStyle;rounded=0;html=1;jettySize=auto;orthogonalLoop=1;fontSize=11;endArrow=block;endFill=0;endSize=8;strokeWidth=2;shadow=0;labelBackgroundColor=none;strokeColor=#ed0c0c;entryX=1;entryY=0.5;entryDx=0;entryDy=0;exitX=0;exitY=0;exitDx=0;exitDy=0;" parent="WIyWlLk6GJQsqaUBKTNV-1" source="z3ujY_tSIcdoNhCUxw0q-70" target="z3ujY_tSIcdoNhCUxw0q-100" edge="1">
          <mxGeometry x="-0.1967" y="10" relative="1" as="geometry">
            <mxPoint as="offset" />
            <mxPoint x="171" y="-856" as="sourcePoint" />
            <mxPoint x="211" y="-855.67" as="targetPoint" />
            <Array as="points">
              <mxPoint x="266" y="-840" />
            </Array>
          </mxGeometry>
        </mxCell>
        <mxCell id="z3ujY_tSIcdoNhCUxw0q-105" value="No" style="edgeStyle=orthogonalEdgeStyle;rounded=0;html=1;jettySize=auto;orthogonalLoop=1;fontSize=11;endArrow=block;endFill=0;endSize=8;strokeWidth=2;shadow=0;labelBackgroundColor=none;strokeColor=#FF0000;" parent="WIyWlLk6GJQsqaUBKTNV-1" target="z3ujY_tSIcdoNhCUxw0q-73" edge="1">
          <mxGeometry x="-0.1967" y="10" relative="1" as="geometry">
            <mxPoint as="offset" />
            <mxPoint x="533" y="-760.5" as="sourcePoint" />
            <mxPoint x="573" y="-760.0699999999999" as="targetPoint" />
            <Array as="points">
              <mxPoint x="619" y="-760" />
            </Array>
          </mxGeometry>
        </mxCell>
        <mxCell id="z3ujY_tSIcdoNhCUxw0q-107" style="edgeStyle=orthogonalEdgeStyle;rounded=0;orthogonalLoop=1;jettySize=auto;html=1;endArrow=block;endFill=0;endSize=8;strokeColor=#0000FF;strokeWidth=2;exitX=1;exitY=0.5;exitDx=0;exitDy=0;entryX=0;entryY=0;entryDx=0;entryDy=0;" parent="WIyWlLk6GJQsqaUBKTNV-1" source="z3ujY_tSIcdoNhCUxw0q-73" target="z3ujY_tSIcdoNhCUxw0q-94" edge="1">
          <mxGeometry relative="1" as="geometry">
            <mxPoint x="589" y="-840" as="sourcePoint" />
            <mxPoint x="719" y="-680" as="targetPoint" />
            <Array as="points">
              <mxPoint x="720" y="-805" />
            </Array>
          </mxGeometry>
        </mxCell>
        <mxCell id="z3ujY_tSIcdoNhCUxw0q-108" style="edgeStyle=orthogonalEdgeStyle;rounded=0;orthogonalLoop=1;jettySize=auto;html=1;endArrow=block;endFill=0;endSize=8;strokeColor=#0000FF;strokeWidth=2;entryX=0.981;entryY=0.242;entryDx=0;entryDy=0;entryPerimeter=0;" parent="WIyWlLk6GJQsqaUBKTNV-1" target="z3ujY_tSIcdoNhCUxw0q-94" edge="1">
          <mxGeometry relative="1" as="geometry">
            <mxPoint x="789" y="-670" as="targetPoint" />
            <mxPoint x="39" y="-825" as="sourcePoint" />
            <Array as="points">
              <mxPoint x="39" y="-110" />
              <mxPoint x="809" y="-110" />
              <mxPoint x="809" y="-670" />
              <mxPoint x="799" y="-670" />
            </Array>
          </mxGeometry>
        </mxCell>
        <mxCell id="z3ujY_tSIcdoNhCUxw0q-109" value="&lt;div style=&quot;line-height: 120%;&quot;&gt;¿Hay más directorios o carpetas?&lt;/div&gt;" style="rhombus;whiteSpace=wrap;html=1;shadow=0;fontFamily=Helvetica;fontSize=12;align=center;strokeWidth=2;spacing=6;spacingTop=-4;fillColor=#dae8fc;gradientColor=#7ea6e0;strokeColor=#6c8ebf;" parent="WIyWlLk6GJQsqaUBKTNV-1" vertex="1">
          <mxGeometry x="79" y="-645" width="120" height="60" as="geometry" />
        </mxCell>
        <mxCell id="z3ujY_tSIcdoNhCUxw0q-111" value="Recorre el directorio o carpeta" style="rounded=1;whiteSpace=wrap;html=1;fontSize=12;glass=0;strokeWidth=2;shadow=0;fillColor=#f5f5f5;gradientColor=#b3b3b3;strokeColor=#666666;" parent="WIyWlLk6GJQsqaUBKTNV-1" vertex="1">
          <mxGeometry x="89" y="-770" width="110" height="30" as="geometry" />
        </mxCell>
        <mxCell id="z3ujY_tSIcdoNhCUxw0q-117" value="Guarda los archivos .md en un array" style="rounded=1;whiteSpace=wrap;html=1;fontSize=12;glass=0;strokeWidth=2;shadow=0;fillColor=#f5f5f5;gradientColor=#b3b3b3;strokeColor=#666666;" parent="WIyWlLk6GJQsqaUBKTNV-1" vertex="1">
          <mxGeometry x="241" y="-630" width="110" height="30" as="geometry" />
        </mxCell>
        <mxCell id="z3ujY_tSIcdoNhCUxw0q-118" style="edgeStyle=orthogonalEdgeStyle;rounded=0;orthogonalLoop=1;jettySize=auto;html=1;endArrow=block;endFill=0;endSize=8;strokeColor=#FF0080;strokeWidth=2;exitX=0.5;exitY=1;exitDx=0;exitDy=0;" parent="WIyWlLk6GJQsqaUBKTNV-1" edge="1" source="z3ujY_tSIcdoNhCUxw0q-111">
          <mxGeometry relative="1" as="geometry">
            <mxPoint x="189" y="-680" as="sourcePoint" />
            <mxPoint x="299" y="-630" as="targetPoint" />
            <Array as="points">
              <mxPoint x="144" y="-680" />
              <mxPoint x="299" y="-680" />
            </Array>
          </mxGeometry>
        </mxCell>
        <mxCell id="z3ujY_tSIcdoNhCUxw0q-131" value="Si" style="rounded=0;html=1;jettySize=auto;orthogonalLoop=1;fontSize=11;endArrow=block;endFill=0;endSize=8;strokeWidth=2;shadow=0;labelBackgroundColor=none;edgeStyle=orthogonalEdgeStyle;strokeColor=#00FF00;exitX=0.5;exitY=1;exitDx=0;exitDy=0;entryX=0.5;entryY=0;entryDx=0;entryDy=0;" parent="WIyWlLk6GJQsqaUBKTNV-1" target="z3ujY_tSIcdoNhCUxw0q-133" edge="1" source="z3ujY_tSIcdoNhCUxw0q-66">
          <mxGeometry x="-0.3405" y="-10" relative="1" as="geometry">
            <mxPoint as="offset" />
            <mxPoint x="472.6" y="-625" as="sourcePoint" />
            <mxPoint x="577" y="-580" as="targetPoint" />
            <Array as="points">
              <mxPoint x="473" y="-610" />
              <mxPoint x="559" y="-610" />
            </Array>
          </mxGeometry>
        </mxCell>
        <mxCell id="z3ujY_tSIcdoNhCUxw0q-133" value="¿Contiene links&amp;nbsp; &amp;nbsp;para procesar?" style="rhombus;whiteSpace=wrap;html=1;shadow=0;fontFamily=Helvetica;fontSize=12;align=center;strokeWidth=2;spacing=6;spacingTop=-4;fillColor=#dae8fc;gradientColor=#7ea6e0;strokeColor=#6c8ebf;" parent="WIyWlLk6GJQsqaUBKTNV-1" vertex="1">
          <mxGeometry x="499" y="-515" width="120" height="60" as="geometry" />
        </mxCell>
        <mxCell id="z3ujY_tSIcdoNhCUxw0q-135" value="mensaje: Error" style="rounded=1;whiteSpace=wrap;html=1;fontSize=12;glass=0;strokeWidth=2;shadow=0;fillColor=#f8cecc;strokeColor=#b85450;gradientColor=#ea6b66;" parent="WIyWlLk6GJQsqaUBKTNV-1" vertex="1">
          <mxGeometry x="679" y="-500" width="96" height="30" as="geometry" />
        </mxCell>
        <mxCell id="z3ujY_tSIcdoNhCUxw0q-136" style="edgeStyle=orthogonalEdgeStyle;rounded=0;orthogonalLoop=1;jettySize=auto;html=1;endArrow=block;endFill=0;endSize=8;strokeColor=#0000FF;strokeWidth=2;" parent="WIyWlLk6GJQsqaUBKTNV-1" edge="1">
          <mxGeometry relative="1" as="geometry">
            <mxPoint x="729" y="-500" as="sourcePoint" />
            <mxPoint x="749" y="-640" as="targetPoint" />
            <Array as="points">
              <mxPoint x="729" y="-500" />
              <mxPoint x="729" y="-520" />
              <mxPoint x="749" y="-520" />
            </Array>
          </mxGeometry>
        </mxCell>
        <mxCell id="z3ujY_tSIcdoNhCUxw0q-137" value="No" style="edgeStyle=orthogonalEdgeStyle;rounded=0;html=1;jettySize=auto;orthogonalLoop=1;fontSize=11;endArrow=block;endFill=0;endSize=8;strokeWidth=2;shadow=0;labelBackgroundColor=none;strokeColor=#FF0000;exitX=1;exitY=0.5;exitDx=0;exitDy=0;" parent="WIyWlLk6GJQsqaUBKTNV-1" edge="1" source="z3ujY_tSIcdoNhCUxw0q-133">
          <mxGeometry x="-0.1967" y="10" relative="1" as="geometry">
            <mxPoint as="offset" />
            <mxPoint x="639" y="-485" as="sourcePoint" />
            <mxPoint x="679" y="-484.56999999999994" as="targetPoint" />
            <Array as="points" />
          </mxGeometry>
        </mxCell>
        <mxCell id="z3ujY_tSIcdoNhCUxw0q-139" value="Si" style="rounded=0;html=1;jettySize=auto;orthogonalLoop=1;fontSize=11;endArrow=block;endFill=0;endSize=8;strokeWidth=2;shadow=0;labelBackgroundColor=none;edgeStyle=orthogonalEdgeStyle;strokeColor=#00FF00;exitX=0.5;exitY=1;exitDx=0;exitDy=0;" parent="WIyWlLk6GJQsqaUBKTNV-1" edge="1">
          <mxGeometry x="-0.3405" y="-10" relative="1" as="geometry">
            <mxPoint as="offset" />
            <mxPoint x="558.5" y="-455" as="sourcePoint" />
            <mxPoint x="558.83" y="-420" as="targetPoint" />
          </mxGeometry>
        </mxCell>
        <mxCell id="z3ujY_tSIcdoNhCUxw0q-140" value="Almacena links en un array y los muestra" style="rounded=1;whiteSpace=wrap;html=1;fontSize=12;glass=0;strokeWidth=2;shadow=0;fillColor=#f5f5f5;gradientColor=#b3b3b3;strokeColor=#666666;" parent="WIyWlLk6GJQsqaUBKTNV-1" vertex="1">
          <mxGeometry x="499" y="-420" width="120" height="30" as="geometry" />
        </mxCell>
        <mxCell id="z3ujY_tSIcdoNhCUxw0q-142" value="Si" style="whiteSpace=wrap;html=1;strokeColor=none;" parent="WIyWlLk6GJQsqaUBKTNV-1" vertex="1">
          <mxGeometry x="379" y="-830" width="3.5" height="10" as="geometry" />
        </mxCell>
        <mxCell id="IDkgSoESV3Mg5VcQTCDd-1" style="edgeStyle=orthogonalEdgeStyle;rounded=0;orthogonalLoop=1;jettySize=auto;html=1;endArrow=block;endFill=0;endSize=8;strokeColor=#FF0080;strokeWidth=2;" edge="1" parent="WIyWlLk6GJQsqaUBKTNV-1" source="z3ujY_tSIcdoNhCUxw0q-117" target="z3ujY_tSIcdoNhCUxw0q-109">
          <mxGeometry relative="1" as="geometry">
            <mxPoint x="239" y="-610" as="sourcePoint" />
            <mxPoint x="219" y="-575" as="targetPoint" />
            <Array as="points" />
          </mxGeometry>
        </mxCell>
        <mxCell id="IDkgSoESV3Mg5VcQTCDd-4" value="Si" style="rounded=0;html=1;jettySize=auto;orthogonalLoop=1;fontSize=11;endArrow=block;endFill=0;endSize=8;strokeWidth=2;shadow=0;labelBackgroundColor=none;edgeStyle=orthogonalEdgeStyle;strokeColor=#00FF00;exitX=0.028;exitY=0.504;exitDx=0;exitDy=0;exitPerimeter=0;entryX=0;entryY=0.5;entryDx=0;entryDy=0;" edge="1" parent="WIyWlLk6GJQsqaUBKTNV-1" source="z3ujY_tSIcdoNhCUxw0q-109" target="z3ujY_tSIcdoNhCUxw0q-111">
          <mxGeometry x="-0.3405" y="-10" relative="1" as="geometry">
            <mxPoint as="offset" />
            <mxPoint x="69" y="-680" as="sourcePoint" />
            <mxPoint x="69" y="-760" as="targetPoint" />
            <Array as="points">
              <mxPoint x="69" y="-615" />
              <mxPoint x="69" y="-755" />
            </Array>
          </mxGeometry>
        </mxCell>
        <mxCell id="IDkgSoESV3Mg5VcQTCDd-5" value="No" style="edgeStyle=orthogonalEdgeStyle;rounded=0;html=1;jettySize=auto;orthogonalLoop=1;fontSize=11;endArrow=block;endFill=0;endSize=8;strokeWidth=2;shadow=0;labelBackgroundColor=none;strokeColor=#FF0000;exitX=0.5;exitY=1;exitDx=0;exitDy=0;entryX=0;entryY=0.5;entryDx=0;entryDy=0;" edge="1" parent="WIyWlLk6GJQsqaUBKTNV-1" source="z3ujY_tSIcdoNhCUxw0q-109" target="z3ujY_tSIcdoNhCUxw0q-133">
          <mxGeometry x="-0.1967" y="10" relative="1" as="geometry">
            <mxPoint as="offset" />
            <mxPoint x="139" y="-485" as="sourcePoint" />
            <mxPoint x="517" y="-485.06999999999994" as="targetPoint" />
            <Array as="points">
              <mxPoint x="139" y="-485" />
            </Array>
          </mxGeometry>
        </mxCell>
        <mxCell id="IDkgSoESV3Mg5VcQTCDd-6" style="edgeStyle=orthogonalEdgeStyle;rounded=0;orthogonalLoop=1;jettySize=auto;html=1;endArrow=block;endFill=0;endSize=8;strokeColor=#FF0080;strokeWidth=2;exitX=0.5;exitY=1;exitDx=0;exitDy=0;" edge="1" parent="WIyWlLk6GJQsqaUBKTNV-1" source="IDkgSoESV3Mg5VcQTCDd-13">
          <mxGeometry relative="1" as="geometry">
            <mxPoint x="564.9999999999999" y="-270.06" as="sourcePoint" />
            <mxPoint x="690" y="-252" as="targetPoint" />
            <Array as="points">
              <mxPoint x="559" y="-280" />
              <mxPoint x="690" y="-280" />
            </Array>
          </mxGeometry>
        </mxCell>
        <mxCell id="IDkgSoESV3Mg5VcQTCDd-12" style="edgeStyle=orthogonalEdgeStyle;rounded=0;orthogonalLoop=1;jettySize=auto;html=1;endArrow=block;endFill=0;strokeColor=#FF0080;strokeWidth=2;startArrow=block;startFill=0;targetPerimeterSpacing=6;sourcePerimeterSpacing=6;jumpSize=6;fillColor=#d80073;endSize=8;startSize=8;" edge="1" parent="WIyWlLk6GJQsqaUBKTNV-1">
          <mxGeometry relative="1" as="geometry">
            <mxPoint x="439" y="-250" as="sourcePoint" />
            <mxPoint x="559" y="-251" as="targetPoint" />
            <Array as="points">
              <mxPoint x="439" y="-280" />
              <mxPoint x="559" y="-280" />
              <mxPoint x="559" y="-251" />
            </Array>
          </mxGeometry>
        </mxCell>
        <mxCell id="IDkgSoESV3Mg5VcQTCDd-14" value="" style="edgeStyle=orthogonalEdgeStyle;rounded=0;orthogonalLoop=1;jettySize=auto;html=1;endArrow=block;endFill=0;endSize=8;strokeColor=#FF0080;strokeWidth=2;" edge="1" parent="WIyWlLk6GJQsqaUBKTNV-1" target="IDkgSoESV3Mg5VcQTCDd-13">
          <mxGeometry relative="1" as="geometry">
            <mxPoint x="559" y="-390" as="sourcePoint" />
            <mxPoint x="689" y="-290" as="targetPoint" />
            <Array as="points">
              <mxPoint x="559" y="-390" />
            </Array>
          </mxGeometry>
        </mxCell>
        <mxCell id="IDkgSoESV3Mg5VcQTCDd-13" value="Ruta (Path)" style="shape=parallelogram;perimeter=parallelogramPerimeter;whiteSpace=wrap;html=1;fixedSize=1;fillColor=#fff2cc;gradientColor=#ffd966;strokeColor=#d6b656;strokeWidth=2;" vertex="1" parent="WIyWlLk6GJQsqaUBKTNV-1">
          <mxGeometry x="499" y="-340" width="120" height="30" as="geometry" />
        </mxCell>
        <mxCell id="IDkgSoESV3Mg5VcQTCDd-15" value="--validate" style="shape=parallelogram;perimeter=parallelogramPerimeter;whiteSpace=wrap;html=1;fixedSize=1;fillColor=#fff2cc;gradientColor=#ffd966;strokeColor=#d6b656;strokeWidth=2;" vertex="1" parent="WIyWlLk6GJQsqaUBKTNV-1">
          <mxGeometry x="379" y="-250" width="120" height="30" as="geometry" />
        </mxCell>
        <mxCell id="IDkgSoESV3Mg5VcQTCDd-16" value="--stats" style="shape=parallelogram;perimeter=parallelogramPerimeter;whiteSpace=wrap;html=1;fixedSize=1;fillColor=#fff2cc;gradientColor=#ffd966;strokeColor=#d6b656;strokeWidth=2;" vertex="1" parent="WIyWlLk6GJQsqaUBKTNV-1">
          <mxGeometry x="499" y="-250" width="120" height="30" as="geometry" />
        </mxCell>
        <mxCell id="IDkgSoESV3Mg5VcQTCDd-17" value="--validate --stats" style="shape=parallelogram;perimeter=parallelogramPerimeter;whiteSpace=wrap;html=1;fixedSize=1;fillColor=#fff2cc;gradientColor=#ffd966;strokeColor=#d6b656;strokeWidth=2;" vertex="1" parent="WIyWlLk6GJQsqaUBKTNV-1">
          <mxGeometry x="629" y="-250" width="120" height="30" as="geometry" />
        </mxCell>
        <mxCell id="IDkgSoESV3Mg5VcQTCDd-18" value="Estadística (Total, Unique)" style="rounded=1;whiteSpace=wrap;html=1;fontSize=12;glass=0;strokeWidth=2;shadow=0;fillColor=#f5f5f5;gradientColor=#b3b3b3;strokeColor=#666666;" vertex="1" parent="WIyWlLk6GJQsqaUBKTNV-1">
          <mxGeometry x="509" y="-190" width="100" height="30" as="geometry" />
        </mxCell>
        <mxCell id="IDkgSoESV3Mg5VcQTCDd-19" value="Validación y estadística (Total, Unique, Broquen)" style="rounded=1;whiteSpace=wrap;html=1;fontSize=12;glass=0;strokeWidth=2;shadow=0;fillColor=#f5f5f5;gradientColor=#b3b3b3;strokeColor=#666666;" vertex="1" parent="WIyWlLk6GJQsqaUBKTNV-1">
          <mxGeometry x="619" y="-190" width="140" height="30" as="geometry" />
        </mxCell>
        <mxCell id="IDkgSoESV3Mg5VcQTCDd-21" value="" style="edgeStyle=orthogonalEdgeStyle;rounded=0;orthogonalLoop=1;jettySize=auto;html=1;endArrow=block;endFill=0;endSize=8;strokeColor=#FF0080;strokeWidth=2;exitX=0.5;exitY=1;exitDx=0;exitDy=0;" edge="1" parent="WIyWlLk6GJQsqaUBKTNV-1" source="IDkgSoESV3Mg5VcQTCDd-17">
          <mxGeometry relative="1" as="geometry">
            <mxPoint x="688.5" y="-240" as="sourcePoint" />
            <mxPoint x="689" y="-190" as="targetPoint" />
            <Array as="points">
              <mxPoint x="689" y="-190" />
            </Array>
          </mxGeometry>
        </mxCell>
        <mxCell id="IDkgSoESV3Mg5VcQTCDd-22" value="" style="edgeStyle=orthogonalEdgeStyle;rounded=0;orthogonalLoop=1;jettySize=auto;html=1;endArrow=block;endFill=0;endSize=8;strokeColor=#FF0080;strokeWidth=2;exitX=0.5;exitY=1;exitDx=0;exitDy=0;entryX=0.454;entryY=-0.067;entryDx=0;entryDy=0;entryPerimeter=0;" edge="1" parent="WIyWlLk6GJQsqaUBKTNV-1">
          <mxGeometry relative="1" as="geometry">
            <mxPoint x="559.5" y="-218" as="sourcePoint" />
            <mxPoint x="558.5" y="-190" as="targetPoint" />
            <Array as="points">
              <mxPoint x="558.5" y="-218" />
            </Array>
          </mxGeometry>
        </mxCell>
        <mxCell id="IDkgSoESV3Mg5VcQTCDd-25" value="" style="edgeStyle=orthogonalEdgeStyle;rounded=0;orthogonalLoop=1;jettySize=auto;html=1;endArrow=block;endFill=0;endSize=8;strokeColor=#FF0080;strokeWidth=2;exitX=0.5;exitY=1;exitDx=0;exitDy=0;entryX=0.454;entryY=-0.067;entryDx=0;entryDy=0;entryPerimeter=0;" edge="1" parent="WIyWlLk6GJQsqaUBKTNV-1">
          <mxGeometry relative="1" as="geometry">
            <mxPoint x="439.5" y="-218" as="sourcePoint" />
            <mxPoint x="438.5" y="-190" as="targetPoint" />
            <Array as="points">
              <mxPoint x="438.5" y="-218" />
            </Array>
          </mxGeometry>
        </mxCell>
        <mxCell id="IDkgSoESV3Mg5VcQTCDd-27" value="¿Es true?" style="rhombus;whiteSpace=wrap;html=1;shadow=0;fontFamily=Helvetica;fontSize=12;align=center;strokeWidth=2;spacing=6;spacingTop=-4;fillColor=#dae8fc;gradientColor=#7ea6e0;strokeColor=#6c8ebf;" vertex="1" parent="WIyWlLk6GJQsqaUBKTNV-1">
          <mxGeometry x="406.5" y="-190" width="65" height="40" as="geometry" />
        </mxCell>
        <mxCell id="IDkgSoESV3Mg5VcQTCDd-28" value="No" style="edgeStyle=orthogonalEdgeStyle;rounded=0;html=1;jettySize=auto;orthogonalLoop=1;fontSize=11;endArrow=block;endFill=0;endSize=8;strokeWidth=2;shadow=0;labelBackgroundColor=none;strokeColor=#ed0c0c;exitX=0.5;exitY=1;exitDx=0;exitDy=0;entryX=1;entryY=0.5;entryDx=0;entryDy=0;" edge="1" parent="WIyWlLk6GJQsqaUBKTNV-1" source="IDkgSoESV3Mg5VcQTCDd-27" target="IDkgSoESV3Mg5VcQTCDd-29">
          <mxGeometry x="-0.1729" y="-10" relative="1" as="geometry">
            <mxPoint as="offset" />
            <mxPoint x="440" y="-65" as="sourcePoint" />
            <mxPoint x="229" y="-160" as="targetPoint" />
            <Array as="points">
              <mxPoint x="440" y="-150" />
              <mxPoint x="440" y="-130" />
              <mxPoint x="269" y="-130" />
              <mxPoint x="269" y="-200" />
            </Array>
          </mxGeometry>
        </mxCell>
        <mxCell id="IDkgSoESV3Mg5VcQTCDd-29" value="&lt;b&gt;text: &lt;/b&gt;Texto que aparece dentro del link.&lt;br&gt;&lt;b&gt;href: &lt;/b&gt;URL encontrada.&lt;br&gt;&lt;b&gt;file: &lt;/b&gt;Ruta del archivo donde se encontró el link." style="rounded=1;whiteSpace=wrap;html=1;fontSize=12;glass=0;strokeWidth=2;shadow=0;fillColor=#f5f5f5;gradientColor=#b3b3b3;strokeColor=#666666;align=left;" vertex="1" parent="WIyWlLk6GJQsqaUBKTNV-1">
          <mxGeometry x="96" y="-240" width="140" height="80" as="geometry" />
        </mxCell>
        <mxCell id="IDkgSoESV3Mg5VcQTCDd-30" value="&lt;b&gt;text: &lt;/b&gt;Texto que aparece dentro del link.&lt;br&gt;&lt;b&gt;href: &lt;/b&gt;URL encontrada.&lt;br&gt;&lt;b&gt;file: &lt;/b&gt;Ruta del archivo donde se encontró el link.&lt;br&gt;&lt;b&gt;status: &lt;/b&gt;Código de respuesta http.&lt;br&gt;&lt;b&gt;ok: &lt;/b&gt;Mensaje fail en caso de fallo u ok en caso de éxito." style="rounded=1;whiteSpace=wrap;html=1;fontSize=12;glass=0;strokeWidth=2;shadow=0;fillColor=#f5f5f5;gradientColor=#b3b3b3;strokeColor=#666666;align=left;" vertex="1" parent="WIyWlLk6GJQsqaUBKTNV-1">
          <mxGeometry x="226" y="-450" width="140" height="170" as="geometry" />
        </mxCell>
        <mxCell id="IDkgSoESV3Mg5VcQTCDd-31" value="Si" style="rounded=0;html=1;jettySize=auto;orthogonalLoop=1;fontSize=11;endArrow=block;endFill=0;endSize=8;strokeWidth=2;shadow=0;labelBackgroundColor=none;edgeStyle=orthogonalEdgeStyle;strokeColor=#00FF00;exitX=0;exitY=0.5;exitDx=0;exitDy=0;entryX=0.577;entryY=1.016;entryDx=0;entryDy=0;entryPerimeter=0;" edge="1" parent="WIyWlLk6GJQsqaUBKTNV-1" target="IDkgSoESV3Mg5VcQTCDd-30">
          <mxGeometry x="-0.3405" y="-10" relative="1" as="geometry">
            <mxPoint as="offset" />
            <mxPoint x="407" y="-170.41999999999996" as="sourcePoint" />
            <mxPoint x="339" y="-170" as="targetPoint" />
            <Array as="points">
              <mxPoint x="307" y="-170" />
            </Array>
          </mxGeometry>
        </mxCell>
        <mxCell id="IDkgSoESV3Mg5VcQTCDd-32" style="edgeStyle=orthogonalEdgeStyle;rounded=0;orthogonalLoop=1;jettySize=auto;html=1;endArrow=block;endFill=0;endSize=8;strokeColor=#0000FF;strokeWidth=2;exitX=0.452;exitY=0.995;exitDx=0;exitDy=0;exitPerimeter=0;" edge="1" parent="WIyWlLk6GJQsqaUBKTNV-1" source="IDkgSoESV3Mg5VcQTCDd-29">
          <mxGeometry relative="1" as="geometry">
            <mxPoint x="159" y="-150" as="sourcePoint" />
            <mxPoint x="159" y="-110" as="targetPoint" />
            <Array as="points">
              <mxPoint x="159" y="-140" />
            </Array>
          </mxGeometry>
        </mxCell>
        <mxCell id="IDkgSoESV3Mg5VcQTCDd-33" style="edgeStyle=orthogonalEdgeStyle;rounded=0;orthogonalLoop=1;jettySize=auto;html=1;endArrow=block;endFill=0;endSize=8;strokeColor=#0000FF;strokeWidth=2;exitX=0;exitY=0.522;exitDx=0;exitDy=0;exitPerimeter=0;" edge="1" parent="WIyWlLk6GJQsqaUBKTNV-1" source="IDkgSoESV3Mg5VcQTCDd-30">
          <mxGeometry relative="1" as="geometry">
            <mxPoint x="169" y="-335" as="sourcePoint" />
            <mxPoint x="69" y="-109.04761904761904" as="targetPoint" />
            <Array as="points">
              <mxPoint x="169" y="-361" />
              <mxPoint x="49" y="-361" />
            </Array>
          </mxGeometry>
        </mxCell>
      </root>
    </mxGraphModel>
  </diagram>
</mxfile>
